M48
; DRILL file {KiCad (5.1.9)-1} date 03/01/21 18:45:09
; FORMAT={-:-/ absolute / inch / decimal}
; #@! TF.CreationDate,2021-03-01T18:45:09-05:00
; #@! TF.GenerationSoftware,Kicad,Pcbnew,(5.1.9)-1
; #@! TF.FileFunction,Plated,1,2,PTH
FMAT,2
INCH
T1C0.0150
T2C0.0315
%
G90
G05
T1
X6.8225Y-3.5689
X6.8225Y-4.0189
X6.9225Y-3.5689
X6.9225Y-4.0189
X7.0225Y-3.5689
T2
X5.1181Y-3.3859
X5.1181Y-4.252
X5.1969Y-3.3859
X5.1969Y-4.252
X5.2756Y-3.3859
X5.2756Y-4.252
X5.3544Y-3.3859
X5.3544Y-4.252
X5.4331Y-3.3859
X5.4331Y-4.252
X5.5119Y-3.3859
X5.5119Y-4.252
X5.5906Y-3.3859
X5.5906Y-4.252
X5.6693Y-3.3859
X5.6693Y-4.252
X5.7481Y-3.3859
X5.7481Y-4.252
X5.8268Y-3.3859
X5.8268Y-4.252
X6.6181Y-3.3859
X6.6181Y-4.252
X6.6969Y-3.3859
X6.6969Y-4.252
X6.7756Y-3.3859
X6.7756Y-4.252
X6.8544Y-3.3859
X6.8544Y-4.252
X6.9331Y-3.3859
X6.9331Y-4.252
X7.0119Y-3.3859
X7.0119Y-4.252
X7.0906Y-3.3859
X7.0906Y-4.252
X7.1693Y-3.3859
X7.1693Y-4.252
X7.2481Y-3.3859
X7.2481Y-4.252
X7.3268Y-3.3859
X7.3268Y-4.252
T0
M30
