%TF.GenerationSoftware,KiCad,Pcbnew,(5.1.9)-1*%
%TF.CreationDate,2021-03-01T18:45:07-05:00*%
%TF.ProjectId,multicntr_filled,6d756c74-6963-46e7-9472-5f66696c6c65,A*%
%TF.SameCoordinates,Original*%
%TF.FileFunction,Paste,Top*%
%TF.FilePolarity,Positive*%
%FSLAX46Y46*%
G04 Gerber Fmt 4.6, Leading zero omitted, Abs format (unit mm)*
G04 Created by KiCad (PCBNEW (5.1.9)-1) date 2021-03-01 18:45:07*
%MOMM*%
%LPD*%
G01*
G04 APERTURE LIST*
%ADD10R,1.187040X1.523040*%
%ADD11R,0.899040X0.227040*%
%ADD12R,1.523040X1.187040*%
%ADD13R,0.227040X0.899040*%
%ADD14R,0.899040X1.475040*%
G04 APERTURE END LIST*
D10*
%TO.C,J1*%
X131381000Y-101025920D03*
X131381000Y-92975920D03*
D11*
X133281000Y-98750920D03*
X133281000Y-98250920D03*
X133281000Y-97750920D03*
X133281000Y-97250920D03*
X133281000Y-96750920D03*
X133281000Y-96250920D03*
X133281000Y-95750920D03*
X133281000Y-95250920D03*
%TD*%
D12*
%TO.C,J3*%
X211606000Y-100810920D03*
X203556000Y-100810920D03*
D13*
X209331000Y-98910920D03*
X208831000Y-98910920D03*
X208331000Y-98910920D03*
X207831000Y-98910920D03*
X207331000Y-98910920D03*
X206831000Y-98910920D03*
X206331000Y-98910920D03*
X205831000Y-98910920D03*
%TD*%
D12*
%TO.C,J4*%
X203556000Y-93190920D03*
X211606000Y-93190920D03*
D13*
X205831000Y-95090920D03*
X206331000Y-95090920D03*
X206831000Y-95090920D03*
X207331000Y-95090920D03*
X207831000Y-95090920D03*
X208331000Y-95090920D03*
X208831000Y-95090920D03*
X209331000Y-95090920D03*
%TD*%
D14*
%TO.C,P2*%
X168101000Y-106400920D03*
X170101000Y-109600920D03*
X172101000Y-106400920D03*
X174101000Y-109600920D03*
X176101000Y-106400920D03*
X178101000Y-109600920D03*
X180101000Y-106400920D03*
X182101000Y-109600920D03*
X184101000Y-106400920D03*
X186101000Y-109600920D03*
%TD*%
%TO.C,P1*%
X168101000Y-84400920D03*
X170101000Y-87600920D03*
X172101000Y-84400920D03*
X174101000Y-87600920D03*
X176101000Y-84400920D03*
X178101000Y-87600920D03*
X180101000Y-84400920D03*
X182101000Y-87600920D03*
X184101000Y-84400920D03*
X186101000Y-87600920D03*
%TD*%
%TO.C,P1*%
X148001000Y-87600920D03*
X146001000Y-84400920D03*
X144001000Y-87600920D03*
X142001000Y-84400920D03*
X140001000Y-87600920D03*
X138001000Y-84400920D03*
X136001000Y-87600920D03*
X134001000Y-84400920D03*
X132001000Y-87600920D03*
X130001000Y-84400920D03*
%TD*%
%TO.C,P2*%
X148001000Y-109600920D03*
X146001000Y-106400920D03*
X144001000Y-109600920D03*
X142001000Y-106400920D03*
X140001000Y-109600920D03*
X138001000Y-106400920D03*
X136001000Y-109600920D03*
X134001000Y-106400920D03*
X132001000Y-109600920D03*
X130001000Y-106400920D03*
%TD*%
M02*
