%TF.GenerationSoftware,KiCad,Pcbnew,(5.1.9)-1*%
%TF.CreationDate,2021-03-01T18:45:07-05:00*%
%TF.ProjectId,multicntr_filled,6d756c74-6963-46e7-9472-5f66696c6c65,A*%
%TF.SameCoordinates,Original*%
%TF.FileFunction,Legend,Bot*%
%TF.FilePolarity,Positive*%
%FSLAX46Y46*%
G04 Gerber Fmt 4.6, Leading zero omitted, Abs format (unit mm)*
G04 Created by KiCad (PCBNEW (5.1.9)-1) date 2021-03-01 18:45:07*
%MOMM*%
%LPD*%
G01*
G04 APERTURE LIST*
%ADD10C,0.100000*%
%ADD11C,0.150000*%
G04 APERTURE END LIST*
D10*
%TO.C,J2*%
X172481000Y-98900920D02*
X172481000Y-98900920D01*
X172481000Y-99000920D02*
X172481000Y-99000920D01*
X171381000Y-92150920D02*
X170481000Y-92150920D01*
X171381000Y-94500920D02*
X171381000Y-92150920D01*
X171381000Y-101850920D02*
X171381000Y-99500920D01*
X170481000Y-101850920D02*
X171381000Y-101850920D01*
X167581000Y-92150920D02*
X168481000Y-92150920D01*
X167581000Y-101850920D02*
X167581000Y-92150920D01*
X168481000Y-101850920D02*
X167581000Y-101850920D01*
X172481000Y-99000920D02*
G75*
G03*
X172481000Y-98900920I0J50000D01*
G01*
X172481000Y-98900920D02*
G75*
G03*
X172481000Y-99000920I0J-50000D01*
G01*
D11*
%TO.C,EXP_ORIENTATION*%
X186901000Y-97000920D02*
X186426000Y-97475920D01*
X186901000Y-97000920D02*
X187376000Y-97475920D01*
X186901000Y-97000920D02*
X187376000Y-96525920D01*
X186901000Y-97000920D02*
X186426000Y-96525920D01*
X187601446Y-97000920D02*
G75*
G03*
X187601446Y-97000920I-700446J0D01*
G01*
X187601000Y-97000920D02*
X188701000Y-97000920D01*
X188701000Y-97000920D02*
X188301000Y-96650920D01*
X188701000Y-97000920D02*
X188301000Y-97350920D01*
X148801000Y-97000920D02*
X148326000Y-97475920D01*
X148801000Y-97000920D02*
X149276000Y-97475920D01*
X148801000Y-97000920D02*
X149276000Y-96525920D01*
X148801000Y-97000920D02*
X148326000Y-96525920D01*
X149501446Y-97000920D02*
G75*
G03*
X149501446Y-97000920I-700446J0D01*
G01*
X149501000Y-97000920D02*
X150601000Y-97000920D01*
X150601000Y-97000920D02*
X150201000Y-96650920D01*
X150601000Y-97000920D02*
X150201000Y-97350920D01*
%TD*%
M02*
